<svg xmlns="http://www.w3.org/2000/svg" version="1.1" xmlnsXlink="http://www.w3.org/1999/xlink" xmlnsSvgjs="http://svgjs.dev/svgjs" width="100%" height="100%" viewBox="0 0 2000 1252"><g transform="matrix(1,0,0,1,-1.2121212121212466,-2.01935483870966)"><svg viewBox="0 0 396 248" data-background-color="#222831" preserveAspectRatio="xMidYMid meet" height="1252" width="2000" xmlns="http://www.w3.org/2000/svg" xmlnSxlink="http://www.w3.org/1999/xlink"><g id="tight-bounds" transform="matrix(1,0,0,1,0.2400000000000091,0.4000000000000057)"><svg viewBox="0 0 395.52 247.2" height="247.2" width="395.52"><g><svg></svg></g><g><svg viewBox="0 0 395.52 247.2" height="247.2" width="395.52"><g transform="matrix(1,0,0,1,75.54432,64.47981282880538)"><svg viewBox="0 0 244.43135999999998 118.24037434238923" height="118.24037434238923" width="244.43135999999998"><g><svg viewBox="0 0 244.43135999999998 118.24037434238923" height="118.24037434238923" width="244.43135999999998"><g><svg viewBox="0 0 244.43135999999998 118.24037434238923" height="118.24037434238923" width="244.43135999999998"><g><svg viewBox="0 0 244.43135999999998 118.24037434238923" height="118.24037434238923" width="244.43135999999998"><g id="textblocktransform"><svg viewBox="0 0 244.43135999999998 118.24037434238923" height="118.24037434238923" width="244.43135999999998" id="textblock"><g><svg viewBox="0 0 244.43135999999998 63.77320797118846" height="63.77320797118846" width="244.43135999999998"><g transform="matrix(1,0,0,1,0,0)"><svg width="244.43135999999998" viewBox="2.9 -31.98 124.94 32.61" height="63.77320797118846" data-palette-color="#001100"><path d="M2.9-31.98L13.68-31.98 22.33-8.53 22.68-8.53 22.33-22.03 22.33-31.98 29.78-31.98 29.78 0 19.3 0 10.33-23.98 10-23.98 10.35-10.18 10.35 0 2.9 0 2.9-31.98ZM56.72 0L49.2 0 49.42-6.15 49.25-6.53 49.25-14.2 49.2-15.2Q49.2-17.25 48-18.23 46.8-19.2 43.97-19.2L43.97-19.2Q41.5-19.2 39.27-18.57 37.05-17.95 35.07-17.15L35.07-17.15 35.72-23.08Q36.9-23.63 38.36-24.11 39.82-24.6 41.6-24.9 43.37-25.2 45.4-25.2L45.4-25.2Q48.62-25.2 50.8-24.45 52.97-23.7 54.27-22.33 55.57-20.95 56.15-19.04 56.72-17.13 56.72-14.83L56.72-14.83 56.72 0ZM41.37 0.58L41.37 0.58Q37.7 0.58 35.8-1.28 33.9-3.13 33.9-6.55L33.9-6.55 33.9-7.23Q33.9-10.85 36.13-12.59 38.37-14.33 43.25-14.95L43.25-14.95 49.85-15.83 50.3-11.23 44.45-10.38Q42.67-10.15 41.95-9.55 41.22-8.95 41.22-7.78L41.22-7.78 41.22-7.6Q41.22-6.48 41.95-5.81 42.67-5.15 44.27-5.15L44.27-5.15Q45.67-5.15 46.69-5.58 47.7-6 48.35-6.69 49-7.38 49.32-8.22L49.32-8.22 50.4-5.13 49.15-5.13Q48.75-3.53 47.91-2.23 47.07-0.93 45.5-0.18 43.92 0.58 41.37 0.58ZM70.14 0.6L70.14 0.6Q67.22 0.6 64.87 0.09 62.52-0.43 60.84-1.1L60.84-1.1 60.2-7.53Q62.12-6.73 64.46-6.09 66.8-5.45 69.52-5.45L69.52-5.45Q71.69-5.45 72.61-5.91 73.52-6.38 73.52-7.35L73.52-7.35 73.52-7.45Q73.52-8.13 73.06-8.56 72.59-9 71.46-9.35 70.32-9.7 68.27-10.18L68.27-10.18Q65.19-10.9 63.39-11.89 61.59-12.88 60.83-14.31 60.07-15.75 60.07-17.73L60.07-17.73 60.07-17.93Q60.07-21.58 62.67-23.39 65.27-25.2 70.32-25.2L70.32-25.2Q73.17-25.2 75.44-24.68 77.72-24.15 79.27-23.43L79.27-23.43 79.92-17.45Q78.12-18.25 75.91-18.78 73.69-19.3 71.27-19.3L71.27-19.3Q69.8-19.3 68.96-19.1 68.12-18.9 67.78-18.53 67.44-18.15 67.44-17.6L67.44-17.6 67.44-17.53Q67.44-16.93 67.84-16.5 68.25-16.07 69.31-15.7 70.37-15.33 72.37-14.85L72.37-14.85Q75.47-14.18 77.37-13.31 79.27-12.45 80.14-11.09 81.02-9.73 81.02-7.48L81.02-7.48 81.02-7.25Q81.02-3.28 78.34-1.34 75.67 0.6 70.14 0.6ZM96.82 0.63L96.82 0.63Q90.12 0.63 86.92-2.36 83.72-5.35 83.72-11.08L83.72-11.08 83.72-13.63Q83.72-19.28 86.72-22.29 89.72-25.3 95.44-25.3L95.44-25.3Q99.29-25.3 101.85-23.99 104.42-22.68 105.7-20.25 106.99-17.82 106.99-14.43L106.99-14.43 106.99-13.6Q106.99-12.65 106.91-11.66 106.82-10.68 106.67-9.83L106.67-9.83 99.77-9.83Q99.87-11.28 99.89-12.56 99.92-13.85 99.92-14.9L99.92-14.9Q99.92-16.43 99.44-17.46 98.97-18.5 97.98-19.05 96.99-19.6 95.44-19.6L95.44-19.6Q93.14-19.6 92.08-18.36 91.02-17.13 91.02-14.85L91.02-14.85 91.02-12.6 91.07-11.78 91.07-10.03Q91.07-9.08 91.38-8.22 91.69-7.38 92.48-6.74 93.27-6.1 94.66-5.74 96.04-5.38 98.19-5.38L98.19-5.38Q100.47-5.38 102.57-5.81 104.67-6.25 106.59-7L106.59-7 105.97-1.25Q104.27-0.38 101.94 0.13 99.62 0.63 96.82 0.63ZM105.12-9.83L87.77-9.83 87.77-14.55 105.12-14.55 105.12-9.83ZM118.61-13.8L118.61-13.8 116.52-18.45 118.31-18.45Q118.91-21.5 120.65-23.24 122.39-24.98 125.56-24.98L125.56-24.98Q126.11-24.98 126.58-24.9 127.04-24.83 127.47-24.73L127.47-24.73 127.84-17Q127.31-17.15 126.61-17.21 125.91-17.28 125.19-17.28L125.19-17.28Q122.74-17.28 121.06-16.36 119.39-15.45 118.61-13.8ZM118.77 0L111.11 0 111.11-24.58 118.31-24.58 117.99-16.73 118.77-16.63 118.77 0Z" opacity="1" transform="matrix(1,0,0,1,0,0)" fill="#001100" class="wordmark-text-0" data-fill-palette-color="primary" id="text-0"></path></svg></g></svg></g><g transform="matrix(1,0,0,1,0,78.82853181619475)"><svg viewBox="0 0 244.43135999999998 39.41184252619447" height="39.41184252619447" width="244.43135999999998"><g transform="matrix(1,0,0,1,0,0)"><svg width="244.43135999999998" viewBox="1.23 -33.48 265.75 42.86" height="39.41184252619447" data-palette-color="#001100"><path d="M14.2-29.15L5.43 0 1.23 0 11.23-31.95 17.78-31.95 27.8 0 23.6 0 14.83-29.15 14.2-29.15ZM21.78-12.88L21.78-9.43 7.23-9.43 7.23-12.88 21.78-12.88ZM46.01-33.13L46.01 0 41.98 0 41.98-33.13 46.01-33.13ZM79.42-21.38L65.84-3.35 79.52-3.35 79.52 0 60.99 0 60.99-3.05 74.57-21.08 61.04-21.08 61.04-24.4 79.42-24.4 79.42-21.38ZM112.88-15.8L112.88 0 108.85 0 109.03-5.93 108.88-6.55 108.88-14.33 108.9-15.75Q108.9-18.73 107.39-20.15 105.88-21.58 102.6-21.58L102.6-21.58Q99.98-21.58 97.79-20.83 95.6-20.08 93.9-19.07L93.9-19.07 94.28-22.53Q95.23-23.1 96.54-23.66 97.85-24.23 99.54-24.6 101.23-24.98 103.25-24.98L103.25-24.98Q105.88-24.98 107.72-24.34 109.55-23.7 110.69-22.5 111.83-21.3 112.35-19.6 112.88-17.9 112.88-15.8L112.88-15.8ZM100.45 0.53L100.45 0.53Q96.83 0.53 94.89-1.24 92.95-3 92.95-6.28L92.95-6.28 92.95-7Q92.95-10.38 95.04-12.04 97.13-13.7 101.68-14.35L101.68-14.35 109.4-15.45 109.63-12.5 102.18-11.43Q99.38-11.03 98.18-10.06 96.98-9.1 96.98-7.23L96.98-7.23 96.98-6.83Q96.98-4.9 98.17-3.88 99.35-2.85 101.73-2.85L101.73-2.85Q103.83-2.85 105.33-3.58 106.83-4.3 107.75-5.53 108.68-6.75 109-8.25L109-8.25 109.63-5.5 108.85-5.5Q108.5-3.9 107.54-2.53 106.58-1.15 104.85-0.31 103.13 0.53 100.45 0.53ZM138.11-7.3L138.11-7.3Q133.14-7.3 130.48-9.47 127.81-11.65 127.81-15.7L127.81-15.7 127.81-16.32Q127.81-18.85 128.85-20.73 129.89-22.6 132.16-23.66 134.44-24.73 138.11-24.83L138.11-24.83 150.56-25.23 150.56-22.03 143.21-22.28 143.19-22.1Q144.91-21.75 146.01-20.9 147.11-20.05 147.65-18.78 148.19-17.5 148.19-15.8L148.19-15.8 148.19-15.25Q148.19-11.38 145.64-9.34 143.09-7.3 138.11-7.3ZM137.94 6.15L137.94 6.15 138.51 6.15Q140.76 6.15 142.38 5.81 143.99 5.48 144.86 4.75 145.74 4.03 145.74 2.83L145.74 2.83 145.74 2.73Q145.74 1.33 144.73 0.59 143.71-0.15 141.26-0.38L141.26-0.38 134.36-1 135.51-1.05Q134.11-0.85 133.05-0.4 131.99 0.05 131.39 0.79 130.79 1.53 130.79 2.63L130.79 2.63 130.79 2.68Q130.79 3.95 131.66 4.73 132.54 5.5 134.14 5.83 135.74 6.15 137.94 6.15ZM138.44 9.38L138.44 9.38 137.71 9.38Q134.41 9.38 132.03 8.81 129.64 8.25 128.33 6.99 127.01 5.73 127.01 3.6L127.01 3.6 127.01 3.5Q127.01 2 127.73 1 128.44 0 129.65-0.58 130.86-1.15 132.36-1.35L132.36-1.35 132.34-1.5Q130.29-1.85 129.31-2.71 128.34-3.58 128.34-4.95L128.34-4.95 128.34-4.98Q128.34-5.93 128.78-6.6 129.21-7.28 130.1-7.68 130.99-8.08 132.36-8.18L132.36-8.18 132.36-8.68 137.01-7.5 135.11-7.55Q133.41-7.53 132.76-7.14 132.11-6.75 132.11-5.98L132.11-5.98 132.11-5.95Q132.11-5.13 133.04-4.7 133.96-4.28 136.19-4.03L136.19-4.03 142.11-3.43Q145.99-3.03 147.76-1.56 149.54-0.1 149.54 2.75L149.54 2.75 149.54 2.88Q149.54 5.15 148.19 6.6 146.84 8.05 144.36 8.71 141.89 9.38 138.44 9.38ZM138.06-10.3L138.06-10.3Q140.16-10.3 141.55-10.91 142.94-11.53 143.65-12.76 144.36-14 144.36-15.8L144.36-15.8 144.36-16.4Q144.36-18.15 143.68-19.38 142.99-20.6 141.61-21.24 140.24-21.88 138.16-21.88L138.16-21.88 138.01-21.88Q135.76-21.88 134.35-21.19 132.94-20.5 132.3-19.26 131.66-18.03 131.66-16.38L131.66-16.38 131.66-15.8Q131.66-14 132.38-12.78 133.09-11.55 134.51-10.93 135.94-10.3 138.06-10.3ZM184.15-15.63L184.15 0 180.1 0 180.1-15.18Q180.1-17.15 179.56-18.57 179.02-20 177.81-20.79 176.6-21.58 174.5-21.58L174.5-21.58Q172.57-21.58 171.17-20.85 169.77-20.13 168.91-18.89 168.05-17.65 167.7-16.07L167.7-16.07 166.8-18.95 167.85-18.95Q168.22-20.6 169.22-21.96 170.22-23.33 171.91-24.14 173.6-24.95 176.02-24.95L176.02-24.95Q178.92-24.95 180.71-23.85 182.5-22.75 183.32-20.69 184.15-18.63 184.15-15.63L184.15-15.63ZM167.82-17.85L167.82 0 163.77 0 163.77-33.13 167.8-33.13 167.8-25.18 167.67-18.18 167.82-17.85ZM218.46-15.8L218.46 0 214.43 0 214.61-5.93 214.46-6.55 214.46-14.33 214.48-15.75Q214.48-18.73 212.97-20.15 211.46-21.58 208.18-21.58L208.18-21.58Q205.56-21.58 203.37-20.83 201.18-20.08 199.48-19.07L199.48-19.07 199.86-22.53Q200.81-23.1 202.12-23.66 203.43-24.23 205.12-24.6 206.81-24.98 208.83-24.98L208.83-24.98Q211.46-24.98 213.3-24.34 215.13-23.7 216.27-22.5 217.41-21.3 217.93-19.6 218.46-17.9 218.46-15.8L218.46-15.8ZM206.03 0.53L206.03 0.53Q202.41 0.53 200.47-1.24 198.53-3 198.53-6.28L198.53-6.28 198.53-7Q198.53-10.38 200.62-12.04 202.71-13.7 207.26-14.35L207.26-14.35 214.98-15.45 215.21-12.5 207.76-11.43Q204.96-11.03 203.76-10.06 202.56-9.1 202.56-7.23L202.56-7.23 202.56-6.83Q202.56-4.9 203.75-3.88 204.93-2.85 207.31-2.85L207.31-2.85Q209.41-2.85 210.91-3.58 212.41-4.3 213.33-5.53 214.26-6.75 214.58-8.25L214.58-8.25 215.21-5.5 214.43-5.5Q214.08-3.9 213.12-2.53 212.16-1.15 210.43-0.31 208.71 0.53 206.03 0.53ZM238.04-14.93L238.04-14.93 237.12-18.05 238.12-18.1Q238.92-21.2 240.87-22.99 242.82-24.78 246.04-24.78L246.04-24.78Q246.84-24.78 247.48-24.65 248.12-24.53 248.62-24.35L248.62-24.35 248.87-20.43Q248.24-20.63 247.48-20.75 246.72-20.88 245.79-20.88L245.79-20.88Q243.04-20.88 241.01-19.35 238.97-17.82 238.04-14.93ZM238.24-16.9L238.24 0 234.19 0 234.19-24.4 238.14-24.4 237.94-17.2 238.24-16.9ZM266.5-24.4L266.5 0 262.45 0 262.45-24.4 266.5-24.4ZM264.48-28.4L264.48-28.4Q263.23-28.4 262.62-29.06 262-29.73 262-30.88L262-30.88 262-31Q262-32.18 262.62-32.83 263.23-33.48 264.48-33.48L264.48-33.48Q265.73-33.48 266.35-32.83 266.98-32.18 266.98-31L266.98-31 266.98-30.88Q266.98-29.7 266.35-29.05 265.73-28.4 264.48-28.4Z" opacity="1" transform="matrix(1,0,0,1,0,0)" fill="#001100" class="slogan-text-1" data-fill-palette-color="secondary" id="text-1"></path></svg></g></svg></g></svg></g></svg></g></svg></g></svg></g></svg></g><path d="M244.954 58.48L244.954 0.438 0 0.438 0 246.762 244.954 246.762 244.954 188.72 239.203 188.72 239.203 241.011 5.751 241.011 5.751 6.189 239.203 6.189 239.203 58.48Z" fill="#001100" stroke="transparent" data-fill-palette-color="tertiary"></path></svg></g><defs></defs></svg><rect width="395.52" height="247.2" fill="none" stroke="none" visibility="hidden"></rect></g></svg></g></svg>